<?xml version="1.0" encoding="iso-8859-1"?>
<!-- Generator: Adobe Illustrator 19.0.0, SVG Export Plug-In . SVG Version: 6.00 Build 0)  -->
<svg version="1.1" id="Capa_1" xmlns="http://www.w3.org/2000/svg" xmlns:xlink="http://www.w3.org/1999/xlink" x="0px" y="0px"
	 viewBox="0 0 512.032 512.032" style="enable-background:new 0 0 512.032 512.032;" xml:space="preserve">
<path style="fill:#F8B64C;" d="M332.059,274.368v44.789c-15.04,21.333-37.12,34.016-60.373,37.877
	c-5.12,0.853-10.453,2.059-15.584,2.059c-28.48,0-57.312-14.037-75.755-39.957l0.352-44.768L332.059,274.368L332.059,274.368z"/>
<g style="opacity:0.1;">
	<g>
		<path style="fill:#40596B;" d="M332.059,275.637v43.52c-15.04,21.333-37.12,34.016-60.373,37.877l-43.211-32.107
			c6.293,2.773,13.024,4.245,19.957,4.245h16c14.293,0,27.936-5.963,37.547-16.523l10.56-11.52
			C319.792,293.131,326.192,284.491,332.059,275.637"/>
	</g>
</g>
<g>
	<path style="fill:#F8B64C;" d="M178.352,157.824c1.557,17.856-7.104,33.205-19.371,34.293
		c-12.245,1.067-23.456-12.544-25.024-30.421s7.104-33.227,19.349-34.293C165.584,126.325,176.795,139.947,178.352,157.824"/>
	<path style="fill:#F8B64C;" d="M378.267,161.696c-1.557,17.877-12.768,31.477-25.024,30.421
		c-12.267-1.088-20.939-16.437-19.371-34.293c1.557-17.877,12.768-31.499,25.024-30.443
		C371.163,128.469,379.835,143.819,378.267,161.696"/>
</g>
<path style="fill:#FFD15C;" d="M363.312,195.659c-3.211,18.016-8.416,35.627-16.107,52.171
	c-8.853,19.296-20.789,37.44-35.413,53.333l-10.453,11.52c-9.579,10.443-23.253,16.523-37.44,16.523h-15.563
	c-14.08,0-27.851-6.08-37.44-16.523l-10.453-11.52c-14.624-15.893-26.56-34.037-35.413-53.333
	c-7.584-16.544-12.917-34.144-16.107-52.171c-2.997-17.397-6.731-69.984,1.269-98.357c13.024-45.856,53.771-78.816,105.92-80.107
	c52.171,1.291,92.917,34.251,105.941,80.107C370.043,125.675,366.288,178.261,363.312,195.659"/>
<path style="fill:#CDD6E0;" d="M512.016,423.819v88.213h-512v-88.213c0-20.373,12.491-38.731,31.467-46.08l61.44-24.107
	l55.147-21.749l12.48-4.917l19.829-7.787c5.771,8.213,12.608,15.04,20.064,20.704c16.437,12.245,36.064,18.443,55.584,18.443
	c5.205,0,10.443-0.416,15.563-1.269c0.213-0.107,0.309-0.107,0.437-0.107c1.92-0.331,3.733-0.651,5.547-1.184
	c1.6-0.309,3.317-0.725,5.003-1.269c1.707-0.544,3.413-1.067,5.12-1.707c5.12-1.813,10.144-4.171,14.837-6.837
	c11.189-6.4,21.227-15.349,29.227-26.773l0.213,0.107l19.627,7.691l12.48,4.917l55.147,21.643l61.44,24.213
	C499.547,385.216,512.016,403.445,512.016,423.819"/>
<path style="fill:#ACB3BA;" d="M162.939,331.488c21.376,30.123,56.192,48.128,93.088,48.128c37.088,0,71.915-18.005,93.163-48.192
	c1.003-1.419,1.749-2.933,2.357-4.501l-19.776-7.787c-18.357,26.037-47.147,39.147-75.755,39.147
	c-28.48,0-57.205-13.109-75.669-39.147l-19.808,7.787C161.168,328.491,161.915,330.048,162.939,331.488"/>
<g>
	<path style="fill:#40596B;" d="M444.709,512.032H67.312c7.691-28.683,21.44-67.413,21.44-67.413
		c12.917-53.333,8.437-79.563,4.171-90.976l55.147-21.749c8.747,46.293,38.624,69.856,58.976,80.725
		c2.667,1.504,6.517,3.211,10.891,5.227c24.213,11.104,52.043,11.104,76.267,0c4.352-2.016,8.213-3.733,10.88-5.227
		c20.373-10.88,50.123-34.443,58.976-80.725l55.147,21.643c-4.267,11.413-8.853,37.547,4.171,91.083
		C423.376,444.619,437.125,483.349,444.709,512.032"/>
	<path style="fill:#40596B;" d="M146.747,176.928l10.816,10.667v-47.296h-12.064c-0.064,4.587-0.043,9.163,0.021,13.685
		C145.733,162.197,146.192,170.027,146.747,176.928"/>
	<path style="fill:#40596B;" d="M365.563,176.928c0.565-6.891,1.024-14.731,1.227-22.933c0.064-4.523,0.085-9.109,0-13.685h-12.043
		v47.296L365.563,176.928z"/>
</g>
<path style="fill:#4CDBC4;" d="M374.48,120.299H137.755v-1.92C137.755,53.003,190.757,0,256.133,0
	c65.355,0,118.357,53.003,118.357,118.379v1.92H374.48z"/>
<path style="fill:#3DC9AE;" d="M149.691,105.589c2.357-0.501,4.853-1.088,7.435-1.707c65.088-15.808,132.768-15.829,197.856-0.021
	c2.624,0.629,5.163,1.205,7.563,1.728c15.147,3.317,15.211,19.808,4.672,34.709c-6.421,9.067-11.253,15.232-22.912,9.579
	c0,0-45.12-23.083-88.213-23.083s-88.149,23.083-88.149,23.083c-11.605,5.643-16.544-0.523-22.933-9.579
	C134.48,125.408,134.544,108.907,149.691,105.589"/>
<path style="fill:#4CDBC4;" d="M382.725,483.243v28.789H129.392v-28.789c0-20.704,16.853-37.44,37.547-37.44h178.251
	C365.872,445.803,382.725,462.528,382.725,483.243"/>
<g>
</g>
<g>
</g>
<g>
</g>
<g>
</g>
<g>
</g>
<g>
</g>
<g>
</g>
<g>
</g>
<g>
</g>
<g>
</g>
<g>
</g>
<g>
</g>
<g>
</g>
<g>
</g>
<g>
</g>
</svg>
