<?xml version="1.0" encoding="iso-8859-1"?>
<!-- Generator: Adobe Illustrator 19.0.0, SVG Export Plug-In . SVG Version: 6.00 Build 0)  -->
<svg version="1.1" id="Capa_1" xmlns="http://www.w3.org/2000/svg" xmlns:xlink="http://www.w3.org/1999/xlink" x="0px" y="0px"
	 viewBox="0 0 409.6 409.6" style="enable-background:new 0 0 409.6 409.6;" xml:space="preserve">
<path style="fill:#64798A;" d="M301.933,112.181l-81.244-12.707v-1.85l-6.486,0.836l-5.341-0.836v1.523l-101.195,13.033
	c0,0,9.761,117.6-17.077,169.537h118.272h11.827h98.321C292.172,229.781,301.933,112.181,301.933,112.181z"/>
<path style="fill:#F6C358;" d="M256.749,259.202h-0.005v-34.919H152.855v34.919l-21.324,5.454
	c4.576,36.394,35.634,105.967,73.269,105.967c37.633,0,68.693-69.574,73.267-105.968L256.749,259.202z"/>
<path style="fill:#FCD462;" d="M279.971,129.167c-1.139-3.37-8.458-48.752-9.984-51.85H132.664
	c-1.526,3.098-1.896,48.48-3.035,51.85c-9.981,0.012-18.068,8.41-18.068,23.848c0,15.026,7.662,31.18,17.274,32.053
	c10.247,37.277,51.484,77.707,75.966,77.707c22.673,0,65.719-40.43,75.966-77.707c9.611-0.873,17.274-17.027,17.274-32.053
	C298.039,137.577,289.952,129.179,279.971,129.167z"/>
<path style="fill:#31978C;" d="M302.431,113.277l-13.737,38.637c-1.509,4.244-7.514,6.225-12.308,4.071
	c-11.196-5.029-33.577-12.007-71.587-12.007s-60.391,6.977-71.587,12.007c-4.794,2.154-10.799,0.173-12.308-4.071l-13.737-38.637
	l76.411-35.891l96.331,19.729L302.431,113.277z"/>
<path style="fill:#44C4A1;" d="M203.441,0.004c-53.258,0.298-96.273,17.998-96.273,60.799v52.474
	c65.087-27.29,130.175-27.29,195.263,0V61.403C302.432,17.707,257.984-0.301,203.441,0.004z"/>
<polygon style="fill:#31978C;" points="204.8,22.578 212.736,38.657 230.48,41.236 217.64,53.752 220.671,71.425 204.8,63.081 
	188.929,71.425 191.96,53.752 179.12,41.236 196.864,38.657 "/>
<path style="fill:#E56353;" d="M360.28,317.832c-1.121-19.433-14.689-35.906-33.546-40.729l-38.173-9.764l-31.812-8.137
	L204.8,299.655l-51.944-40.453l-31.815,8.137l-38.173,9.764c-18.858,4.823-32.426,21.296-33.547,40.729L44.027,409.6h321.546
	L360.28,317.832z"/>
<path style="fill:#FFFFFF;" d="M313.829,345.52h-56.734c-2.349,0-4.255,1.905-4.255,4.255v13.474c0,2.35,1.906,4.255,4.255,4.255
	h56.734c2.35,0,4.254-1.905,4.254-4.255v-13.474C318.083,347.424,316.179,345.52,313.829,345.52z"/>
<g>
	<polygon style="fill:#D15241;" points="256.744,259.202 212.777,293.471 242.785,326.119 271.504,262.897 	"/>
	<polygon style="fill:#D15241;" points="152.988,259.202 196.955,293.471 166.947,326.119 138.228,262.897 	"/>
	<polygon style="fill:#D15241;" points="204.8,299.655 196.888,293.494 196.888,409.6 212.712,409.6 212.712,293.494 	"/>
</g>
<g>
	<circle style="fill:#CE412D;" cx="204.8" cy="322.519" r="3.599"/>
	<circle style="fill:#CE412D;" cx="204.8" cy="356.506" r="3.599"/>
	<circle style="fill:#CE412D;" cx="204.8" cy="390.502" r="3.599"/>
</g>
<g>
</g>
<g>
</g>
<g>
</g>
<g>
</g>
<g>
</g>
<g>
</g>
<g>
</g>
<g>
</g>
<g>
</g>
<g>
</g>
<g>
</g>
<g>
</g>
<g>
</g>
<g>
</g>
<g>
</g>
</svg>
